Coordinates
version=1
nRows=34
nColumns=38
inDegrees=no

Units are S.I. units (second, meters, Newtons, ...)
If the header above contains a line with 'inDegrees', this indicates whether rotational values are in degrees (yes) or radians (no).

endheader
time	pelvis_tilt	pelvis_list	pelvis_rotation	pelvis_tx	pelvis_ty	pelvis_tz	hip_flexion_r	hip_adduction_r	hip_rotation_r	knee_angle_r	ankle_angle_r	subtalar_angle_r	mtp_angle_r	hip_flexion_l	hip_adduction_l	hip_rotation_l	knee_angle_l	ankle_angle_l	subtalar_angle_l	mtp_angle_l	lumbar_extension	lumbar_bending	lumbar_rotation	arm_flex_r	arm_add_r	arm_rot_r	elbow_flex_r	pro_sup_r	wrist_flex_r	wrist_dev_r	arm_flex_l	arm_add_l	arm_rot_l	elbow_flex_l	pro_sup_l	wrist_flex_l	wrist_dev_l
35	-1.02251	1.47857	-0.27044	0.746707	1.08275	0.888137	-0.268001	0.112562	-0.25296	0.414226	-0.127281	0	0	0.330201	-0.0232544	0.0490686	0	-0.438473	0	0	-0.0878384	0.127361	0.241604	0.788935	-0.233386	0.829669	0.65506	0.955992	0	0	0.0953106	-0.200041	0.566225	0.415142	1.5708	0	0
35.01	-1.30731	1.45062	0.00535733	0.749192	1.07239	0.882518	-0.246203	0.142107	-0.229837	0.428746	-0.1304	0	0	0.373158	-0.051508	0.115581	0	-0.469062	0	0	-0.0538091	0.168048	0.248786	0.791739	-0.238141	0.859496	0.666182	0.91938	0	0	0.0685015	-0.196257	0.534072	0.435126	1.5708	0	0
35.02	-1.38594	1.44685	0.0821068	0.750904	1.06317	0.88121	-0.24038	0.143803	-0.222158	0.440785	-0.133442	0	0	0.371488	-0.0540605	0.133933	0	-0.477543	0	0	-0.0443403	0.171327	0.253662	0.791906	-0.235011	0.860951	0.670683	0.906195	0	0	0.0621731	-0.197042	0.529673	0.438889	1.5708	0	0
35.03	-1.38245	1.47293	0.0790359	0.752465	1.05409	0.884301	-0.246115	0.113622	-0.225912	0.45333	-0.142045	0	0	0.329249	-0.0324281	0.110084	0	-0.479495	0	0	-0.0527582	0.136622	0.259602	0.78758	-0.226466	0.844905	0.671046	0.892265	0	0	0.0687959	-0.198876	0.528996	0.427312	1.5708	0	0
35.04	-1.32775	1.48389	0.0130691	0.754326	1.04312	0.885235	-0.259595	0.0941829	-0.227065	0.464323	-0.156042	0	0	0.320523	-0.0205419	0.0770923	0	-0.489927	0	0	-0.0594738	0.123137	0.276797	0.777518	-0.222815	0.821714	0.679996	0.879196	0	0	0.0660468	-0.201001	0.530619	0.427578	1.5708	0	0
35.05	-1.40113	1.48822	0.0845198	0.756923	1.03348	0.884977	-0.257323	0.0843168	-0.225244	0.477391	-0.164593	0	0	0.303367	-0.0160018	0.0977136	0	-0.506087	0	0	-0.0540267	0.117537	0.282691	0.76938	-0.219939	0.807232	0.688637	0.872887	0	0	0.062378	-0.201812	0.530421	0.427954	1.5708	0	0
35.06	-1.70191	1.44771	0.381674	0.761482	1.02311	0.878026	-0.212599	0.108813	-0.214455	0.513314	-0.181101	0	0	0.357709	-0.0435219	0.167152	0	-0.522179	0	0	-0.0021298	0.161819	0.287922	0.751167	-0.23277	0.805529	0.715793	0.84687	0	0	0.0386293	-0.199024	0.530173	0.444406	1.5708	0	0
35.07	-1.71994	1.44397	0.385457	0.763583	1.01151	0.877384	-0.215756	0.103947	-0.200838	0.525119	-0.190192	0	0	0.357713	-0.0475525	0.168985	0	-0.469719	0	0	0.00335347	0.166431	0.303057	0.742023	-0.229989	0.802164	0.723578	0.846922	0	0	0.0273828	-0.201891	0.531146	0.451089	1.5708	0	0
35.08	-1.96357	1.46602	0.6417	0.766124	1.00422	0.879403	-0.189066	0.0623013	-0.220832	0.569163	-0.211064	0	0	0.343563	-0.0163738	0.132911	0	-0.536943	0	0	0.012522	0.12167	0.298754	0.727541	-0.216515	0.761786	0.721979	0.881842	0	0	0.0426086	-0.205682	0.549777	0.430259	1.5708	0	0
35.09	-2.04248	1.45557	0.716983	0.769086	0.994239	0.877789	-0.174877	0.057365	-0.216767	0.591302	-0.222053	0	0	0.350744	-0.0255539	0.115989	0	-0.515708	0	0	0.0287883	0.126209	0.302139	0.720663	-0.21369	0.765417	0.728232	0.886868	0	0	0.0338349	-0.207674	0.553986	0.433388	1.5708	0	0
35.1	-2.05183	1.47589	0.745746	0.771525	0.986208	0.881613	-0.191054	0.0415948	-0.231396	0.600232	-0.237421	0	0	0.471158	-0.0055117	-0.0936194	0.237666	-0.436259	0	0	0.00792151	0.0997778	0.288061	0.723052	-0.20553	0.764826	0.727661	0.893823	0	0	0.0460179	-0.212593	0.562409	0.423908	1.5708	0	0
35.11	-2.03711	1.4577	0.719593	0.773668	0.974793	0.88001	-0.179536	0.0507957	-0.21074	0.620615	-0.256318	0	0	0.516932	-0.0326278	-0.121632	0.34955	-0.38943	0	0	0.0246363	0.118337	0.297452	0.718373	-0.207641	0.791866	0.735104	0.901459	0	0	0.0319903	-0.216109	0.567054	0.432277	1.5708	0	0
35.12	-1.97825	1.42759	0.631973	0.774553	0.961369	0.877168	-0.167729	0.0742087	-0.166051	0.639396	-0.276168	0	0	0.562181	-0.0759664	-0.123247	0.467159	-0.31067	0	0	0.046524	0.155794	0.320622	0.710419	-0.21304	0.825925	0.747421	0.917472	0	0	0.00663491	-0.222259	0.568565	0.453759	1.5708	0	0
35.13	-2.14074	1.47134	0.805275	0.775356	0.953265	0.883971	-0.176045	0.022308	-0.182871	0.662735	-0.305203	0	0	0.506972	-0.0279233	-0.137199	0.391611	-0.382209	0	0	0.0218683	0.0897971	0.318969	0.702068	-0.19432	0.794649	0.73697	0.960251	0	0	0.0319636	-0.229886	0.585564	0.42746	1.5708	0	0
35.14	-2.20938	1.46888	0.877147	0.778125	0.943975	0.884479	-0.162016	0.0112375	-0.184723	0.692983	-0.32619	0	0	0.509389	-0.0217679	-0.129289	0.403383	-0.381298	0	0	0.0290329	0.0839639	0.315342	0.693938	-0.193416	0.799181	0.744395	0.972834	0	0	0.0294636	-0.234098	0.590699	0.4276	1.5708	0	0
35.15	-2.26428	1.46241	0.940759	0.781632	0.935491	0.884379	-0.143397	0.00223562	-0.193067	0.727174	-0.34673	0	0	0.517843	-0.0124436	-0.105288	0.419889	-0.381024	0	0	0.0385519	0.0821486	0.305681	0.686423	-0.196269	0.805425	0.755126	0.991082	0	0	0.02661	-0.237186	0.594583	0.429331	1.5708	0	0
35.16	-2.42192	1.46379	1.11532	0.785808	0.928349	0.885504	-0.122861	-0.0252322	-0.216188	0.767741	-0.372748	0	0	0.484754	0.010822	-0.11574	0.335714	-0.432562	0	0	0.044176	0.0614779	0.290101	0.678149	-0.197079	0.802013	0.763411	1.01912	0	0	0.0312642	-0.239507	0.599595	0.423763	1.5708	0	0
35.17	-2.48709	1.46512	1.1806	0.788125	0.91936	0.886756	-0.110493	-0.0413381	-0.21646	0.800893	-0.396306	0	0	0.473975	0.0175798	-0.125074	0.33126	-0.433081	0	0	0.0454567	0.0515287	0.290616	0.671053	-0.20163	0.811086	0.775156	1.04702	0	0	0.0312122	-0.242788	0.601405	0.423368	1.5708	0	0
35.18	-2.51872	1.46437	1.21036	0.790211	0.910384	0.887681	-0.0967232	-0.0528643	-0.213755	0.834718	-0.416058	0	0	0.467113	0.019633	-0.132657	0.337065	-0.423492	0	0	0.047582	0.0467288	0.292382	0.666076	-0.210846	0.83338	0.793412	1.08865	0	0	0.029503	-0.245685	0.601132	0.425402	1.5708	0	0
35.19	-2.54337	1.46273	1.23355	0.792215	0.901842	0.888567	-0.0806714	-0.0631013	-0.210777	0.870169	-0.430203	0	0	0.459946	0.0210057	-0.137294	0.340617	-0.41169	0	0	0.049652	0.0430263	0.294075	0.658075	-0.224846	0.854869	0.822998	1.12127	0	0	0.0287155	-0.248051	0.600403	0.427462	1.5708	0	0
35.2	-2.55252	1.45302	1.24304	0.793719	0.894096	0.888698	-0.0532515	-0.066683	-0.204846	0.910326	-0.438955	0	0	0.462766	0.0202376	-0.12906	0.345615	-0.397437	0	0	0.0585155	0.0431496	0.296147	0.640929	-0.241554	0.861432	0.863744	1.12062	0	0	0.0303425	-0.250397	0.603717	0.428619	1.5708	0	0
35.21	-2.52633	1.45688	1.21703	0.795832	0.886448	0.889893	-0.0434579	-0.073337	-0.205077	0.945153	-0.448075	0	0	0.448932	0.0182291	-0.133585	0.34989	-0.385756	0	0	0.0457016	0.0449658	0.308781	0.606284	-0.239883	0.790465	0.934966	1.05416	0	0	0.0410703	-0.24781	0.610775	0.428229	1.5708	0	0
35.22	-2.56843	1.4571	1.25494	0.797094	0.877943	0.891741	-0.0271816	-0.0845145	-0.199708	0.976794	-0.458175	0	0	0.434965	0.0219642	-0.136791	0.340891	-0.382865	0	0	0.0511639	0.0358457	0.30317	0.600419	-0.265257	0.854916	0.936547	1.10226	0	0	0.0351266	-0.252474	0.601168	0.429207	1.5708	0	0
35.23	-2.57886	1.46161	1.2609	0.798756	0.869809	0.893637	-0.0161096	-0.0947693	-0.195547	1.00813	-0.472151	0	0	0.416356	0.0223992	-0.145467	0.334448	-0.377673	0	0	0.0461097	0.031969	0.303888	0.595176	-0.276467	0.87699	0.958507	1.1161	0	0	0.0335016	-0.253479	0.593395	0.430931	1.5708	0	0
35.24	-2.58231	1.47208	1.26042	0.800833	0.861729	0.896167	-0.0128873	-0.107191	-0.193899	1.03543	-0.488163	0	0	0.388946	0.0247044	-0.15659	0.32285	-0.373173	0	0	0.0337392	0.0275766	0.306241	0.583675	-0.285733	0.886415	0.984078	1.10929	0	0	0.0347712	-0.252398	0.588266	0.430247	1.5708	0	0
35.25	-2.4527	1.46183	1.11177	0.800699	0.852823	0.895941	0.0121074	-0.0897628	-0.163889	1.06816	-0.484946	0	0	0.417019	-0.00236892	-0.156425	0.412869	-0.309825	0	0	0.0407231	0.0477226	0.321489	0.570945	-0.296076	0.896746	1.008	1.11895	0	0	0.0262818	-0.253076	0.581442	0.438819	1.5708	0	0
35.26	-2.57005	1.47596	1.23998	0.804076	0.846766	0.899315	0.0169394	-0.119452	-0.179503	1.09462	-0.480656	0	0	0.356881	0.0208732	-0.170408	0.30871	-0.357377	0	0	0.0273085	0.0269687	0.307588	0.563829	-0.295989	0.893366	1.01569	1.16197	0	0	0.0333175	-0.251389	0.576289	0.431135	1.5708	0	0
35.27	-2.43916	1.47891	1.08415	0.803548	0.837089	0.900738	0.0261669	-0.107715	-0.146902	1.115	-0.466294	0	0	0.363372	-0.004082	-0.196139	0.384235	-0.307884	0	0	0.0216376	0.0399739	0.328202	0.551468	-0.298997	0.898283	1.03224	1.1702	0	0	0.0251347	-0.25261	0.565468	0.439289	1.5708	0	0
35.28	-2.46624	1.49005	1.09147	0.80367	0.82857	0.903379	0.0353882	-0.118354	-0.123517	1.13597	-0.454547	0	0	0.326609	-0.00492036	-0.238479	0.353836	-0.314849	0	0	0.0124469	0.0317956	0.343442	0.54229	-0.296901	0.899927	1.04053	1.18588	0	0	0.0225572	-0.253713	0.556359	0.440655	1.5708	0	0
35.29	-2.55274	1.49602	1.15288	0.803048	0.82039	0.905232	0.0560933	-0.128377	-0.0910481	1.16105	-0.440762	0	0	0.302624	-0.00747325	-0.289558	0.338676	-0.316642	0	0	0.0101817	0.0217826	0.36708	0.523296	-0.292009	0.887411	1.05259	1.1677	0	0	0.0214736	-0.255483	0.552903	0.442139	1.5708	0	0
35.3	-2.49151	1.50131	1.08889	0.804863	0.814087	0.90654	0.0670258	-0.130635	-0.084522	1.17978	-0.434106	0	0	0.282525	-0.00938165	-0.300359	0.331653	-0.312554	0	0	-0.00315595	0.0260047	0.373496	0.505451	-0.268689	0.835933	1.08301	1.13392	0	0	0.0260817	-0.252322	0.553405	0.444425	1.5708	0	0
35.31	-2.47649	1.49877	1.08061	0.807285	0.807853	0.907817	0.0835494	-0.132033	-0.0865775	1.19189	-0.428136	0	0	0.271514	-0.00728235	-0.295387	0.32007	-0.312833	0	0	0.00262767	0.0271565	0.355199	0.50775	-0.292044	0.892449	1.07212	1.16211	0	0	0.0189935	-0.253201	0.542744	0.446351	1.5708	0	0
35.32	-2.56199	1.49714	1.15572	0.808146	0.801506	0.908548	0.111211	-0.139049	-0.0679464	1.21183	-0.418279	0	0	0.256416	-0.000666677	-0.308131	0.296231	-0.315454	0	0	0.00724968	0.0225512	0.357367	0.508212	-0.29058	0.908359	1.07364	1.18124	0	0	0.0123666	-0.253426	0.528196	0.450876	1.5708	0	0
35.33	-2.55311	1.49546	1.14739	0.809523	0.795753	0.909441	0.131367	-0.138328	-0.0597716	1.22417	-0.406589	0	0	0.246317	-0.00155689	-0.313407	0.288849	-0.317327	0	0	0.00783413	0.0235275	0.350692	0.502452	-0.287362	0.901502	1.07425	1.26434	0	0	0.0079445	-0.253254	0.514362	0.456134	1.5708	0	0
